<svg width="18" height="16" viewBox="0 0 18 16" fill="none" xmlns="http://www.w3.org/2000/svg">
<path d="M15.8088 1.87708H10.1765C10.1386 1.15059 9.51848 0.571036 8.76181 0.571036H2.0667C1.28537 0.571036 0.649602 1.18838 0.649602 1.94752V5.41728C0.235481 5.81726 0 6.36839 0 6.94765V13.5713C0 14.7416 0.947337 15.6939 2.11151 15.6939H14.5469C15.6894 15.6939 16.6223 14.7769 16.6569 13.6366L17.2148 13.2387L17.2286 13.2281C17.7188 12.8251 18 12.2362 18 11.6122V4C18 2.8294 17.0169 1.87708 15.8088 1.87708ZM14.5469 15.1799H2.11151C1.22913 15.1799 0.511261 14.4583 0.511261 13.5713V6.94765C0.511261 6.47814 0.715465 6.03281 1.07154 5.72565C1.36086 5.47623 1.73017 5.33898 2.11151 5.33898H12.1963V7.25148C12.1963 8.80664 13.451 10.0679 14.998 10.0679H15.4296C15.6774 10.0679 15.918 10.0356 16.1471 9.97452V13.5713C16.1471 14.4583 15.4293 15.1799 14.5469 15.1799ZM12.7075 5.34926H14.7216C15.4777 5.43119 16.0668 6.03281 16.1393 6.78953V9.44122C15.9123 9.5162 15.6744 9.55369 15.4293 9.55369H14.9977C13.7349 9.55369 12.7072 8.52094 12.7072 7.25118L12.7075 5.34926ZM3.10847 4.82503C3.33222 4.1971 3.93551 3.75298 4.61729 3.75298H12.7836C13.4666 3.75298 14.0696 4.1971 14.2925 4.82503H3.10847ZM17.4884 11.6122C17.4884 12.0787 17.2782 12.5201 16.9113 12.8248L16.6584 13.0053V6.94765C16.6584 6.88869 16.6554 6.83035 16.6509 6.7723V6.70095C16.6509 5.69542 15.8593 4.87521 14.8672 4.83712C14.8545 4.83652 14.8419 4.83652 14.8293 4.83621C14.7237 4.42052 14.494 4.04382 14.1679 3.75903C13.7842 3.42375 13.2925 3.23903 12.7836 3.23903H4.61729C4.10904 3.23903 3.61762 3.42345 3.23388 3.75843C2.91058 4.0405 2.68141 4.41356 2.57405 4.82503H2.11121C1.77889 4.82503 1.45349 4.90454 1.16056 5.05328V1.94752C1.16056 1.47196 1.56686 1.08499 2.0664 1.08499H8.76151C9.26074 1.08499 9.66704 1.47196 9.66704 1.94752C9.66704 2.19246 9.86561 2.39103 10.1106 2.39103H15.8088C16.7351 2.39103 17.4884 3.11268 17.4884 4V11.6122Z" fill="#D6D6D6"/>
</svg>
